<svg viewBox="0 0 435.57 65.79" xmlns="http://www.w3.org/2000/svg"><g fill="#a7a9ac"><path d="m20.58.84v41.87l-13.45-41.87h-7.13v64.3h7.51v-41.39l14.69 41.39h5.87v-64.3z"/><path d="m93.47.84-4.99 44.19-5.8-44.19h-6.6l-6.5 44.24-4.36-44.24h-29.36v64.3h22.23v-6.87h-14.76v-20.6h9.53v-6.61h-9.41l-.03-23.36h14.71l7.11 57.44h7.55l6.57-40.06 4.83 40.06h8.07l9.33-64.3z"/><path d="m431.93 57.45a3.71 3.71 0 1 1 -3.69 3.7 3.65 3.65 0 0 1 3.69-3.7zm0 .58a3.14 3.14 0 0 0 0 6.27 3.14 3.14 0 0 0 0-6.27zm-.69 5.28h-.66v-4.13a7.19 7.19 0 0 1 1.17-.1 2.22 2.22 0 0 1 1.28.31 1 1 0 0 1 .38.86 1 1 0 0 1 -.81 1c.36.06.61.4.69 1a3.81 3.81 0 0 0 .27 1h-.69a3.19 3.19 0 0 1 -.28-1.05.77.77 0 0 0 -.89-.72h-.46zm0-2.29h.47c.55 0 1-.2 1-.71 0-.35-.27-.72-1-.72a2.55 2.55 0 0 0 -.47 0z"/></g><path d="m182.65 64.62.24-49.41-9.34 49.41h-7.05l-9.42-49.41.34 49.41h-7.52l.5-63.87h10.22l9.39 50.47 9.42-50.47h10.18l.53 63.87z"/><path d="m413.94 64.62.25-49.41-9.36 49.41h-7.03l-9.42-49.41.32 49.41h-7.51l.48-63.87h10.23l9.41 50.47 9.43-50.47h10.15l.53 63.87z"/><path d="m209.6 65.79c-8.11 0-13.2-5.19-13.2-12.58v-7.28h7.47v7c0 4.22 2 7 5.62 7 4.15 0 6-2.49 6-6.52 0-6.13-2.73-11.21-8.15-17.62-4.87-5.79-10.52-13.16-10.52-21.89 0-7.9 4.45-13.9 13.3-13.9 7.48 0 12.37 5.18 12.37 12.66v7.58h-7.49v-7c0-4.41-1.36-7-5.09-7s-5.62 2.11-5.62 5.85c0 6.8 2.6 11.12 8.73 18.59 6 7.2 10 13.9 10 21.19 0 10.18-7.13 13.92-13.46 13.92"/><path d="m240.76 7.49v57.33h-7.38v-57.33h-9.26v-6.54h25.59v6.54z"/><path d="m137.19 64.82h7.81l-10.12-63.82h-10.12l-10.5 63.87h8.21l2.37-16.17h10.09zm-11.64-22.82 4.22-28.63 4 28.63z"/><path d="m367.67 64.82h7.76l-10.09-63.82h-10.11l-10.5 63.87h8.21l2.36-16.17h10.11zm-11.67-22.82 4.21-28.63 4 28.63z"/><path d="m275.91 7.39v-6.44h-22.05v63.87h22.05v-6.42h-14.56v-20.83h10.34v-6.61h-10.34v-23.57z"/><path d="m328.18 1h-13.51v57.11 6.69h13.53c8.95 0 12.69-5.16 12.69-14.07v-35.67c-.02-8.92-3.76-14.06-12.71-14.06m5.2 50.42c0 4.69-1.56 6.79-5.4 6.79h-5.72v-50.62h5.74c3.84 0 5.4 2.11 5.4 6.9z"/><path d="m301.15 35.3c3-1.69 6.11-3.33 5.39-16.77v-6.39c-.03-8.52-5.12-11.51-11.54-11.51h-13.6v63.86h7.46v-26.38a38.33 38.33 0 0 0 4.61-.31l5.71 26.74h8.55zm-12.31-28h6c2.81 0 4.15 1.54 4.15 4.51v12.3c0 3.36-1.86 6.14-4.78 6.14h-5.41z"/></svg>