<?xml version="1.0" encoding="UTF-8"?>
<svg width="16px" height="28px" viewBox="0 0 16 28" version="1.1" xmlns="http://www.w3.org/2000/svg" xmlns:xlink="http://www.w3.org/1999/xlink">
    <!-- Generator: Sketch 50.2 (55047) - http://www.bohemiancoding.com/sketch -->
    <title>Page 1</title>
    <desc>Created with Sketch.</desc>
    <defs></defs>
    <g id="Web" stroke="none" stroke-width="1" fill="none" fill-rule="evenodd">
        <g id="Home-" transform="translate(-1174.000000, -7313.000000)" fill="#224A93">
            <g id="Group-6" transform="translate(1111.000000, 7311.000000)">
                <path d="M67.2357895,29.7142857 L67.2357895,17.1425498 L63.3347368,17.1425498 L63.3347368,12.5712158 L67.2357895,12.5712158 L67.2357895,8.57129853 C67.2357895,6.79349448 67.8917758,5.30111509 69.2043942,4.09529523 C70.5163668,2.88834049 72.4610822,2.28571429 75.0378947,2.28571429 C75.6880702,2.28571429 76.3382456,2.30670974 76.9884211,2.34870064 C77.6385965,2.39182643 78.1202558,2.43381734 78.4333988,2.47637568 L78.9389474,2.53936204 L78.7226527,6.85704828 L75.3633053,6.85704828 C74.4477653,6.85704828 73.8402031,7.04770968 73.5393275,7.42846503 C73.2378062,7.80922038 73.0873684,8.38063713 73.0873684,9.14271528 L73.0873684,12.5712158 L78.9389474,12.5712158 L78.541869,17.1425498 L73.0873684,17.1425498 L73.0873684,29.7142857 L67.2357895,29.7142857 Z" id="Page-1"></path>
            </g>
        </g>
    </g>
</svg>