<?xml version="1.0" encoding="UTF-8"?>
<svg width="26px" height="27px" viewBox="0 0 26 27" version="1.1" xmlns="http://www.w3.org/2000/svg" xmlns:xlink="http://www.w3.org/1999/xlink">
    <!-- Generator: Sketch 50.2 (55047) - http://www.bohemiancoding.com/sketch -->
    <title>noun_1702537_cc</title>
    <desc>Created with Sketch.</desc>
    <defs></defs>
    <g id="Web" stroke="none" stroke-width="1" fill="none" fill-rule="evenodd">
        <g id="Home-" transform="translate(-1111.000000, -7314.000000)" fill="#224A93" fill-rule="nonzero">
            <g id="Group-6" transform="translate(1111.000000, 7311.000000)">
                <g id="noun_1702537_cc" transform="translate(0.000000, 3.000000)">
                    <g id="Group" transform="translate(0.000000, 0.226594)">
                        <path d="M7.37837838,0.128665658 C3.30900946,0.128665658 0,3.47453408 0,7.58919197 L0,18.9576237 C0,23.0722816 3.30900946,26.41815 7.37837838,26.41815 L18.6216216,26.41815 C22.6909905,26.41815 26,23.0722816 26,18.9576237 L26,7.58919197 C26,3.47453408 22.6909905,0.128665658 18.6216216,0.128665658 L7.37837838,0.128665658 Z M7.37837838,2.26024461 L18.6216216,2.26024461 C21.5595619,2.26024461 23.8918919,4.6185525 23.8918919,7.58919197 L23.8918919,18.9576237 C23.8918919,21.9282632 21.5595619,24.2865711 18.6216216,24.2865711 L7.37837838,24.2865711 C4.44043811,24.2865711 2.10810811,21.9282632 2.10810811,18.9576237 L2.10810811,7.58919197 C2.10810811,4.6185525 4.44043811,2.26024461 7.37837838,2.26024461 Z M20.027027,4.39182355 C19.2508216,4.39182355 18.6216216,5.02802882 18.6216216,5.81287618 C18.6216216,6.59768803 19.2508216,7.23392882 20.027027,7.23392882 C20.8031973,7.23392882 21.4324324,6.59768803 21.4324324,5.81287618 C21.4324324,5.02802882 20.8031973,4.39182355 20.027027,4.39182355 Z M13,6.5234025 C9.3256027,6.5234025 6.32432432,9.55813145 6.32432432,13.2734132 C6.32432432,16.9886842 9.3256027,20.0234132 13,20.0234132 C16.6744008,20.0234132 19.6756757,16.9886842 19.6756757,13.2734132 C19.6756757,9.55813145 16.6744008,6.5234025 13,6.5234025 Z M13,8.65498145 C15.5350878,8.65498145 17.5675676,10.7101433 17.5675676,13.2734132 C17.5675676,15.8366724 15.5350878,17.8918342 13,17.8918342 C10.4649227,17.8918342 8.43243243,15.8366724 8.43243243,13.2734132 C8.43243243,10.7101433 10.4649227,8.65498145 13,8.65498145 Z" id="Shape"></path>
                    </g>
                </g>
            </g>
        </g>
    </g>
</svg>