<svg xmlns="http://www.w3.org/2000/svg" xmlns:xlink="http://www.w3.org/1999/xlink" width="23" height="20" viewBox="0 0 23 20">
    <defs>
        <path id="a" d="M22.362 0v19.4H0V0h22.362z"/>
    </defs>
    <g fill="none" fill-rule="evenodd" transform="translate(.678 .31)">
        <mask id="b" fill="#fff">
            <use xlink:href="#a"/>
        </mask>
        <path fill="#224A93" d="M22.362 2.294a9.733 9.733 0 0 1-2.277 2.542v.636c0 1.309-.178 2.616-.531 3.924a14.561 14.561 0 0 1-1.63 3.773 14.289 14.289 0 0 1-2.628 3.192c-1.018.921-2.239 1.658-3.662 2.21-1.424.554-2.955.83-4.594.83-2.761 0-5.108-.663-7.04-1.99.362.055.725.083 1.087.083 1.984 0 3.882-.774 5.694-2.321-.984-.019-1.868-.346-2.653-.981a4.824 4.824 0 0 1-1.618-2.419 4.507 4.507 0 0 0 2.07-.083c-1.051-.22-1.927-.782-2.626-1.685C1.255 9.102.906 8.06.906 6.882v-.056a4.23 4.23 0 0 0 2.07.608C1.613 6.458.932 5.104.932 3.372c0-.81.207-1.603.621-2.377a13.031 13.031 0 0 0 4.18 3.551A12.558 12.558 0 0 0 11 6.025a5.353 5.353 0 0 1-.104-1.133c0-1.345.445-2.497 1.333-3.455C13.118.48 14.2 0 15.477 0c1.311 0 2.433.516 3.365 1.547A9.065 9.065 0 0 0 21.741.36c-.345 1.18-1.018 2.083-2.019 2.708a8.95 8.95 0 0 0 2.64-.773" mask="url(#b)"/>
    </g>
</svg>
