<?xml version="1.0" encoding="UTF-8"?>
<svg width="39px" height="28px" viewBox="0 0 39 28" version="1.1" xmlns="http://www.w3.org/2000/svg" xmlns:xlink="http://www.w3.org/1999/xlink">
		<!-- Generator: Sketch 50.2 (55047) - http://www.bohemiancoding.com/sketch -->
		<title>Youtube</title>
		<desc>Created with Sketch.</desc>
		<defs></defs>
		<g id="Web" stroke="none" stroke-width="1" fill="none" fill-rule="evenodd">
				<g id="Home-" transform="translate(-1227.000000, -7313.000000)">
						<g id="Group-6" transform="translate(1111.000000, 7311.000000)">
								<g id="Youtube" transform="translate(116.572632, 1.742857)">
										<path d="M5.68389156,1.46962125 C9.86652001,1.12500825 14.1631624,0.952701745 18.5738187,0.952701745 C23.1245834,0.952701745 27.7009389,1.13612905 32.3028853,1.50298365 L32.3028848,1.50298898 C35.3486093,1.74578583 37.725457,4.23857547 37.8230287,7.29240385 C37.8912174,9.42659624 37.9253118,11.732301 37.9253118,14.2095182 C37.9253118,16.9918091 37.7988855,19.6314444 37.5460329,22.128424 L37.5460255,22.1284233 C37.2539738,25.012503 34.9417244,27.275352 32.0520109,27.5050603 C27.8354889,27.8402388 23.4839909,28.007828 18.9975167,28.007828 C14.5700622,28.007828 10.1526342,27.844619 5.74523264,27.5182011 L5.74523314,27.5181943 C2.6867718,27.2916807 0.291437768,24.7951725 0.191575286,21.7299609 C0.110339547,19.2364848 0.0697216783,16.7296705 0.0697216783,14.2095182 C0.0697216783,11.8144449 0.106407748,9.49565512 0.179779888,7.25314895 L0.17978234,7.25314903 C0.279441015,4.20723549 2.64663963,1.71986498 5.68389156,1.46962125 Z" id="Rectangle-3" fill="#224A93"></path>
										<polygon id="Rectangle-2" fill="#FFFFFF" points="15.1452632 8.31428571 24.7831579 13.8139966 15.1452632 19.2857143"></polygon>
								</g>
						</g>
				</g>
		</g>
</svg>
